<svg width="106" height="54" viewBox="0 0 106 54" fill="none" xmlns="http://www.w3.org/2000/svg">
<g id="LOGO" clip-path="url(#clip0_4293_27592)">
<path id="Vector" d="M7.90951 30.6757C6.41638 29.9787 5.1871 29.4187 5.1871 28.2808C5.1871 27.411 5.8827 26.7794 7.26789 26.7794C7.77159 26.7794 8.19135 26.839 8.6171 26.9165C8.83897 26.9522 9.07883 26.988 9.27671 26.988C10.482 26.988 11.1656 26.273 11.6153 24.9207L11.8012 24.3666C11.6093 24.2892 9.6365 23.4253 7.07 23.4253C2.98039 23.4253 0.821657 26.0288 0.827653 28.7335C0.827653 30.0978 1.2594 31.0868 1.93101 31.8613C2.8005 32.8622 4.02978 33.5175 5.1871 34.0775C6.87212 34.8997 8.38923 35.5074 8.38923 36.7227C8.38923 37.8011 7.26789 38.4147 5.76277 38.4147C3.70597 38.4147 1.90702 37.247 1.67915 37.104L-0.00585938 40.2497C0.293965 40.4165 2.47069 41.7927 6.0506 41.7927C9.86437 41.7927 12.7547 39.6181 12.7547 36.2759C12.7547 32.9337 10.0802 31.7183 7.90951 30.6757Z" fill="#DF042B"/>
<path id="Vector_2" d="M22.8288 32.2308L29.7488 23.8008H24.8137L19.2969 31.0751H19.2129V23.8008H15.1533V41.6558H15.3932C17.1502 41.6558 19.2429 40.8515 19.2429 37.9323V33.8334H19.3269L24.9516 41.4354H30.1206L22.8288 32.2308Z" fill="#DF042B"/>
<path id="Vector_3" d="M29.9823 4.67676C28.5491 4.94485 26.4324 6.2317 26.4384 8.51347C26.4384 10.5867 28.1474 11.8378 28.1534 14.5545C28.1594 16.598 27.026 17.9682 25.8027 18.7368C26.3004 18.6951 26.8401 18.6653 27.4398 18.6653C28.693 18.6653 29.4486 18.7785 29.4906 18.7904L35.9068 10.968C34.1259 8.31687 32.0451 6.26149 29.9823 4.68272" fill="#DF042B"/>
<path id="Vector_4" d="M35.3669 25.8082C36.1764 24.5571 36.2783 22.5673 36.3443 20.5417C36.4223 18.6472 36.818 17.2233 39.3665 17.2173C39.9302 17.2173 40.4699 17.2948 41.4413 17.2888C45.1711 17.271 47.6117 15.996 49.1288 15.156C46.0346 13.1959 41.5133 11.1942 35.9006 10.9678C35.5348 11.9925 32.6924 19.8446 32.4766 20.4762C32.5125 20.5119 33.0103 21.0719 33.6279 22.1503C34.5454 23.6337 35.0371 24.8908 35.3609 25.8082" fill="#DF042B"/>
<path id="Vector_5" d="M21.8157 19.3921C21.4919 19.3921 21.33 19.1836 21.288 18.8083C21.246 18.4389 19.6389 3.84863 19.4051 1.64431C19.3691 1.32259 19.2912 0.726831 19.2852 0.518314C19.2852 0.178729 19.507 0 19.7709 0C20.5324 0 24.676 0.959179 29.0774 4.0214C27.8122 4.37886 25.5155 5.68358 25.5275 8.39431C25.5335 10.7952 27.2665 12.1178 27.2725 14.5247C27.2845 18.4389 22.7571 19.3861 21.8157 19.3861" fill="#EF8000"/>
<path id="Vector_6" d="M35.7393 26.8453C35.8112 27.03 35.8712 27.1789 35.9371 27.2861C36.0391 27.4589 36.171 27.5364 36.3329 27.5304C36.4349 27.5304 36.5608 27.4946 36.6987 27.4351C37.0345 27.2802 50.4367 21.0783 52.4575 20.1548C52.7513 20.0178 53.309 19.7676 53.4889 19.6663C53.6808 19.5591 53.7647 19.4042 53.7647 19.2433C53.7647 19.154 53.7347 19.0646 53.6868 18.9812C53.4349 18.5761 52.1397 17.2058 49.9749 15.7104C48.2479 16.6518 45.5675 18.1114 41.5678 18.1233C40.5904 18.1233 40.3685 18.0578 39.6969 18.0637C37.7421 18.0637 37.2564 18.8978 37.1844 20.6017C37.1724 20.9234 37.1664 21.3523 37.1484 21.8289C37.0885 23.3481 36.9026 25.4452 35.7393 26.8453Z" fill="#EF8000"/>
<path id="Vector_7" d="M53.2011 28.8349H57.2128V27.3276H45.1478V28.8349H49.1115L44.6201 34.6377H47.2766L51.1563 29.5558L54.5683 34.0181C54.9041 34.4411 55.2639 34.6436 55.7856 34.6436H57.7524L53.2071 28.8349H53.2011Z" fill="#EF8000"/>
<path id="Vector_8" d="M58.4179 35.9961H43.9424V37.5034H50.0768V42.1384H50.6525C51.5339 42.1384 52.2475 41.4295 52.2475 40.5537V37.5034H58.4179V35.9961Z" fill="#EF8000"/>
<path id="Vector_9" d="M95.7578 27.3276C95.422 27.3276 95.0862 27.5481 94.8704 27.9472L91.2725 37.3543H93.5151L96.4055 29.7226L98.9779 36.7347C99.1399 37.1339 99.5236 37.3484 99.8654 37.3543H101.484L97.5388 27.3276H95.7638H95.7578Z" fill="#EF8000"/>
<path id="Vector_10" d="M106 31.0451H104.291V27.3335H102.12V41.4412H102.696C103.577 41.4412 104.291 40.7322 104.291 39.8564V32.5583H106V31.0451Z" fill="#EF8000"/>
<path id="Vector_11" d="M67.3764 34.0657C67.5863 34.4649 67.9221 34.6794 68.2639 34.6853H69.8829L65.9372 27.3276H64.1563C63.8205 27.3276 63.4847 27.5481 63.2748 27.9472L59.6709 34.6853H61.9076L64.8039 29.2758L67.3764 34.0657Z" fill="#EF8000"/>
<path id="Vector_12" d="M62.0342 36.0854V37.5987H70.891V41.9001H71.4667C72.3481 41.9001 73.0617 41.1911 73.0617 40.3154V36.0854H62.0342Z" fill="#EF8000"/>
<path id="Vector_13" d="M73.0614 27.3276H70.8906V35.3824H73.0614V27.3276Z" fill="#EF8000"/>
<path id="Vector_14" d="M89.2401 27.3276V39.8506C89.2401 40.7204 88.5265 41.4353 87.645 41.4353H87.0693V27.3276H89.2401Z" fill="#EF8000"/>
<path id="Vector_15" d="M82.3375 36.0855V35.2514C84.0824 34.8523 85.2758 33.5952 85.2758 32.0998C85.2758 31.0751 84.7121 30.1576 83.7886 29.5559H85.7375V28.0486H82.3375V27.0239H80.0168V28.0486H76.5389V29.5559H78.4877C77.5703 30.1576 77.0066 31.0751 77.0066 32.0998C77.0066 33.6131 78.2299 34.882 80.0168 35.2633V36.0795H76.0352V37.5868H86.3971V36.0795H82.3375V36.0855ZM79.2013 32.0641C79.2013 31.0096 79.9808 30.1576 81.1382 30.1576C82.2955 30.1576 83.075 31.0096 83.075 32.0641C83.075 33.1186 82.2955 33.9705 81.1382 33.9705C79.9808 33.9705 79.2013 33.1126 79.2013 32.0641Z" fill="#EF8000"/>
<path id="Vector_16" d="M49.0158 53.6665C48.692 53.8274 48.0383 53.9882 47.1988 53.9882C45.262 53.9882 43.7988 52.7729 43.7988 50.5328C43.7988 48.2927 45.256 46.9463 47.3907 46.9463C48.2482 46.9463 48.7879 47.131 49.0218 47.2501L48.8059 47.971C48.4701 47.8101 47.9904 47.685 47.4207 47.685C45.8077 47.685 44.7403 48.7097 44.7403 50.503C44.7403 52.1771 45.7117 53.2495 47.3847 53.2495C47.9244 53.2495 48.4761 53.1363 48.8359 52.9635L49.0218 53.6605L49.0158 53.6665Z" fill="#EF8000"/>
<path id="Vector_17" d="M54.4302 53.8928C54.2383 53.7021 54.0524 53.5055 53.7885 53.2255C53.1949 53.7736 52.5353 54.006 51.7797 54.006C50.4425 54.006 49.6689 53.1123 49.6689 52.0876C49.6689 51.1582 50.2326 50.5148 51.0182 50.0918V50.062C50.6584 49.6152 50.4485 49.1207 50.4485 48.6322C50.4485 47.8041 51.0481 46.9521 52.1935 46.9521C53.051 46.9521 53.7106 47.5181 53.7106 48.3999C53.7106 49.1207 53.2908 49.6867 52.1995 50.2229V50.2527C52.7811 50.9199 53.4347 51.6706 53.8725 52.1591C54.1903 51.6825 54.4062 51.0212 54.5381 50.1633H55.3536C55.1677 51.2357 54.8739 52.0876 54.3642 52.6894C54.73 53.0766 55.0898 53.4579 55.4975 53.8988H54.4362L54.4302 53.8928ZM53.3508 52.7191C52.943 52.2723 52.1755 51.4442 51.4139 50.5684C51.0481 50.8008 50.5264 51.2357 50.5264 51.9566C50.5264 52.737 51.1081 53.3328 51.9356 53.3328C52.5293 53.3328 53.027 53.0706 53.3568 52.7132M51.264 48.5488C51.264 49.0373 51.4859 49.4127 51.7857 49.7761C52.4813 49.3829 52.931 49.0135 52.931 48.4356C52.931 48.0186 52.6972 47.5539 52.1335 47.5539C51.5698 47.5539 51.264 48.0186 51.264 48.5488Z" fill="#EF8000"/>
<path id="Vector_18" d="M61.0978 53.6665C60.774 53.8274 60.1204 53.9882 59.2809 53.9882C57.344 53.9882 55.8809 52.7729 55.8809 50.5328C55.8809 48.2927 57.338 46.9463 59.4728 46.9463C60.3303 46.9463 60.8699 47.131 61.1038 47.2501L60.8879 47.971C60.5521 47.8101 60.0724 47.685 59.4967 47.685C57.8837 47.685 56.8163 48.7097 56.8163 50.503C56.8163 52.1771 57.7877 53.2495 59.4608 53.2495C60.0005 53.2495 60.5521 53.1363 60.9119 52.9635L61.0978 53.6605V53.6665Z" fill="#EF8000"/>
</g>
<defs>
<clipPath id="clip0_4293_27592">
<rect width="106" height="54" fill="white"/>
</clipPath>
</defs>
</svg>
